<?xml version="1.0" encoding="UTF-8"?>
<svg version="1.1" viewBox="0 0 202.42 256.5" xmlns="http://www.w3.org/2000/svg" xmlns:cc="http://creativecommons.org/ns#" xmlns:dc="http://purl.org/dc/elements/1.1/" xmlns:rdf="http://www.w3.org/1999/02/22-rdf-syntax-ns#">
 <g id="_71_innovation" transform="translate(-104.13 -26.376)" data-name="#71_innovation">
  <path d="m275.05 83.15a78.32 78.32 0 0 0-87.71-55.27c-36.06 5.62-64.15 37.21-65.56 73.69 0 1-0.06 2-0.07 3-0.32 25.39 9.83 46.05 29.55 62.23 10.82 8.87 16.29 20.08 16.64 33.93v19.83h64.16v-20.37c0.55-14.29 6.83-25.47 18.11-34.64a78.29 78.29 0 0 0 24.88-82.4z" fill="#fff"/>
  <path d="m232.58 221h-65.16v-20.31c-0.34-13.79-5.73-24.76-16.46-33.56-20-16.45-30-37.51-29.73-62.62 0-1 0-2 0.07-3 1.42-36.64 29.78-68.52 66-74.16 39.62-6.14 76.7 17.25 88.23 55.65a78.8 78.8 0 0 1-25 82.93c-11.46 9.31-17.32 20.43-17.92 34v21.07zm-64.16-1h63.16v-19.86c0.54-14 6.53-25.44 18.3-35a76 76 0 0 0 27.93-59.26 76.74 76.74 0 0 0-3.22-22.61 77.68 77.68 0 0 0-87.16-54.91c-35.73 5.57-63.73 37-65.13 73.21 0 1-0.06 2-0.07 3-0.31 24.79 9.57 45.59 29.37 61.83 10.84 8.9 16.34 20 16.81 33.82v0.5z" fill="#231f20"/>
  <rect x="168.44" y="209.83" width="63.11" height="1" fill="#d1d3d4"/>
  <rect x="168.44" y="199.73" width="63.11" height="1" fill="#d1d3d4"/>
  <path d="m158.44 78.7c0.53-1.56 1.05-3.12 1.6-4.67 0.29-0.81 0.61-1.6 0.94-2.39a2.28 2.28 0 0 1 2.47-1.52c1.26 0.14 2.51 0.41 3.77 0.61a11 11 0 0 0 2 0.26 2.22 2.22 0 0 0 1.4-0.45c1.45-1.38 2.84-2.82 4.2-4.27a2.18 2.18 0 0 0 0.43-2c-0.32-1.52-0.69-3-1-4.57a6.11 6.11 0 0 1-0.17-1.8 1.7 1.7 0 0 1 0.59-1.16 28.19 28.19 0 0 1 7.55-3.44 1.89 1.89 0 0 1 2.15 0.78c1 1.32 2 2.61 2.9 4a3.05 3.05 0 0 0 3 1.5c1.67-0.12 3.35-0.15 5-0.23a1.89 1.89 0 0 0 1.51-0.91c0.59-0.88 1.16-1.79 1.74-2.67s1-1.54 1.53-2.28a1.91 1.91 0 0 1 2.3-0.79c2.32 0.79 4.63 1.61 6.91 2.49a2 2 0 0 1 1.25 2.23c-0.12 1.29-0.41 2.55-0.62 3.83-0.09 0.6-0.18 1.2-0.23 1.81a2.46 2.46 0 0 0 0.77 2.12c1.22 1.15 2.45 2.28 3.63 3.48a2.74 2.74 0 0 0 2.71 0.77c1.65-0.36 3.29-0.76 5-1.12a2.21 2.21 0 0 1 2.77 1.32q1.41 3 2.72 6a2.35 2.35 0 0 1-0.85 3.3c-0.85 0.67-1.77 1.26-2.64 1.9-0.62 0.47-1.23 1-1.82 1.46a2.1 2.1 0 0 0-0.77 1.72c0 1.73 0.06 3.46 0.14 5.19a2.72 2.72 0 0 0 1.39 2.3c0.94 0.57 1.9 1.11 2.84 1.68a18.23 18.23 0 0 1 1.71 1.15 2 2 0 0 1 0.77 2.48q-1.16 3.13-2.34 6.24a4.37 4.37 0 0 1-0.51 0.89 1.84 1.84 0 0 1-1.94 0.91c-1.5-0.24-3-0.5-4.5-0.75h-0.34a3.24 3.24 0 0 0-3.44 1.2c-0.85 1-1.81 1.91-2.72 2.86a3.25 3.25 0 0 0-0.83 3.26c0.37 1.45 0.72 2.91 1 4.38s0 2.23-1.41 2.92c-2 1-4.1 1.9-6.18 2.78a2 2 0 0 1-2.74-0.72c-0.8-1-1.54-2.08-2.29-3.13-1.61-2.27-2-2.47-4.8-2.33l-3.25 0.19a3 3 0 0 0-2.54 1.48c-0.66 1.09-1.29 2.2-2 3.27a10.47 10.47 0 0 1-1.25 1.55 1.53 1.53 0 0 1-1.72 0.45l-6.56-2.45a4.72 4.72 0 0 1-0.84-0.49 1.81 1.81 0 0 1-0.92-1.93c0.23-1.49 0.49-3 0.72-4.45a12.46 12.46 0 0 0 0.13-1.37 2.35 2.35 0 0 0-0.75-2c-1.19-1.09-2.37-2.2-3.55-3.31a2.58 2.58 0 0 0-2.58-0.63c-1.46 0.35-2.93 0.67-4.39 1h-0.17c-1.91 0.35-2.53 0.1-3.36-1.66-0.92-2-1.77-4-2.58-6a2 2 0 0 1 0.79-2.74c1.17-0.89 2.36-1.75 3.59-2.54a3.52 3.52 0 0 0 1.75-3.46c-0.1-1.55-0.14-3.11-0.22-4.67a2 2 0 0 0-0.92-1.63c-1.29-0.83-2.6-1.64-3.89-2.48a4.27 4.27 0 0 1-2.05-2.14zm49.56 8.71a14.8 14.8 0 0 0-14.91-14.82 15 15 0 0 0-14.57 14.83 14.8 14.8 0 0 0 14.67 14.74c9.53 0.01 15.24-8.22 14.81-14.75z" fill="#fff"/>
  <path d="m184.79 122.73a2.12 2.12 0 0 1-0.73-0.13l-1.75-0.66c-1.6-0.59-3.21-1.19-4.81-1.8a4 4 0 0 1-0.82-0.45l-0.12-0.08a2.34 2.34 0 0 1-1.14-2.43c0.11-0.66 0.21-1.31 0.32-2 0.14-0.83 0.27-1.66 0.4-2.49a10.93 10.93 0 0 0 0.13-1.31 1.86 1.86 0 0 0-0.58-1.61c-1.05-1-2.07-1.92-3.1-2.89l-0.46-0.43a2.11 2.11 0 0 0-2.13-0.45c-1 0.25-2 0.48-3 0.71l-1.35 0.31h-0.19c-2.19 0.4-3 0-3.9-1.94-0.8-1.7-1.6-3.54-2.59-6a2.45 2.45 0 0 1 0.95-3.33c1.36-1 2.51-1.85 3.62-2.56a3 3 0 0 0 1.52-3c-0.06-1-0.1-2-0.14-2.92 0-0.59 0-1.18-0.08-1.77a1.45 1.45 0 0 0-0.69-1.23l-1.59-1-2.31-1.46a4.76 4.76 0 0 1-2.25-2.4 0.78 0.78 0 0 1 0-0.16v-0.55a0.45 0.45 0 0 1 0-0.16l0.47-1.4c0.37-1.09 0.74-2.19 1.13-3.28 0.3-0.84 0.63-1.66 1-2.42a2.81 2.81 0 0 1 3-1.82c0.84 0.1 1.69 0.25 2.51 0.39l1.28 0.23 0.51 0.08a6.78 6.78 0 0 0 1.43 0.17 1.84 1.84 0 0 0 1.07-0.31c1.54-1.46 3-3 4.18-4.26a1.64 1.64 0 0 0 0.3-1.54c-0.14-0.68-0.29-1.35-0.44-2-0.19-0.84-0.39-1.69-0.56-2.55a6.51 6.51 0 0 1-0.17-1.95 2.15 2.15 0 0 1 0.82-1.53 28.24 28.24 0 0 1 7.68-3.5 2.36 2.36 0 0 1 2.69 1l1 1.4c0.63 0.84 1.27 1.7 1.87 2.58a2.56 2.56 0 0 0 2.47 1.17c1.08-0.08 2.17-0.12 3.26-0.16l1.76-0.07a1.37 1.37 0 0 0 1.12-0.69c0.36-0.52 0.7-1 1-1.58 0.23-0.36 0.46-0.73 0.7-1.09l0.25-0.38c0.42-0.64 0.84-1.29 1.29-1.91a2.42 2.42 0 0 1 2.88-1c2.79 1 4.92 1.74 6.92 2.51a2.5 2.5 0 0 1 1.58 2.8c-0.09 0.87-0.24 1.74-0.4 2.57-0.08 0.43-0.16 0.86-0.22 1.29a16.11 16.11 0 0 0-0.23 1.77 2 2 0 0 0 0.61 1.72l0.85 0.8c0.93 0.87 1.89 1.76 2.79 2.69a2.24 2.24 0 0 0 2.25 0.63l2.43-0.55c0.84-0.19 1.68-0.39 2.52-0.57a2.72 2.72 0 0 1 3.4 1.59c0.94 2 1.86 4 2.73 6a2.84 2.84 0 0 1-1 3.89c-0.5 0.4-1 0.77-1.56 1.14-0.37 0.26-0.73 0.51-1.09 0.78-0.66 0.48-1.24 1-1.8 1.43a1.6 1.6 0 0 0-0.59 1.33v1.07c0 1.37 0.06 2.74 0.12 4.11a2.23 2.23 0 0 0 1.13 1.88l1.2 0.71c0.55 0.32 1.1 0.64 1.65 1a19 19 0 0 1 1.74 1.17 2.55 2.55 0 0 1 0.94 3.05q-1.16 3.13-2.34 6.25a4.46 4.46 0 0 1-0.51 0.91 2.4 2.4 0 0 1-2.49 1.21l-3.24-0.54-1.37-0.23h-0.26a2.76 2.76 0 0 0-2.95 1c-0.6 0.71-1.27 1.39-1.91 2-0.28 0.27-0.55 0.55-0.83 0.83a2.77 2.77 0 0 0-0.71 2.8c0.35 1.39 0.72 2.89 1 4.41 0.37 1.78-0.08 2.69-1.68 3.46-1.86 0.89-3.89 1.81-6.2 2.79a2.56 2.56 0 0 1-3.33-0.87c-0.67-0.84-1.3-1.73-1.91-2.59l-0.4-0.56c-1.51-2.13-1.76-2.25-4.36-2.12l-1.83 0.11-1.42 0.08a2.5 2.5 0 0 0-2.15 1.24c-0.22 0.37-0.44 0.74-0.65 1.11-0.44 0.73-0.87 1.46-1.33 2.18a11.5 11.5 0 0 1-1.31 1.62 2.13 2.13 0 0 1-1.5 0.71zm-14.11-17.84a3 3 0 0 1 2.13 0.88l0.46 0.43c1 1 2 1.92 3.09 2.87a2.83 2.83 0 0 1 0.91 2.4 12.42 12.42 0 0 1-0.14 1.41c-0.13 0.84-0.27 1.67-0.4 2.5-0.11 0.65-0.22 1.3-0.32 2a1.34 1.34 0 0 0 0.7 1.44l0.12 0.08a3.39 3.39 0 0 0 0.62 0.36l4.81 1.8 1.75 0.65a1 1 0 0 0 1.19-0.32 10.87 10.87 0 0 0 1.19-1.48c0.45-0.7 0.88-1.42 1.31-2.14 0.21-0.37 0.44-0.75 0.66-1.11a3.46 3.46 0 0 1 3-1.73l1.41-0.08 1.84-0.11c2.93-0.14 3.52 0.14 5.23 2.54l0.4 0.57c0.6 0.84 1.22 1.72 1.87 2.54a1.58 1.58 0 0 0 2.15 0.57c2.3-1 4.32-1.89 6.17-2.77 1.19-0.58 1.41-1 1.13-2.37s-0.67-3-1-4.36a3.76 3.76 0 0 1 1-3.73l0.84-0.85c0.63-0.63 1.28-1.29 1.86-2a3.7 3.7 0 0 1 3.93-1.37h0.17l1.41 0.23 3.23 0.54a1.34 1.34 0 0 0 1.44-0.7 3.42 3.42 0 0 0 0.46-0.79q1.19-3.11 2.34-6.23a1.57 1.57 0 0 0-0.61-1.92 18.46 18.46 0 0 0-1.66-1.11l-1.63-1-1.21-0.71a3.24 3.24 0 0 1-1.63-2.71c-0.06-1.37-0.09-2.75-0.12-4.13v-1.07a2.62 2.62 0 0 1 0.94-2.11c0.57-0.49 1.18-1 1.86-1.48 0.36-0.27 0.73-0.53 1.1-0.79s1-0.71 1.52-1.1a1.87 1.87 0 0 0 0.7-2.71c-0.86-2-1.78-4-2.71-6a1.72 1.72 0 0 0-2.22-1l-2.5 0.56-2.45 0.56a3.24 3.24 0 0 1-3.17-0.91c-0.89-0.91-1.84-1.8-2.76-2.66l-0.85-0.81a3 3 0 0 1-0.93-2.52c0-0.64 0.14-1.27 0.24-1.85s0.15-0.87 0.23-1.31c0.15-0.81 0.3-1.66 0.38-2.48a1.55 1.55 0 0 0-0.93-1.72c-2-0.76-4.11-1.53-6.89-2.49a1.42 1.42 0 0 0-1.74 0.62c-0.44 0.61-0.85 1.24-1.26 1.87l-0.34 0.42c-0.24 0.36-0.47 0.72-0.7 1.08-0.35 0.54-0.69 1.07-1 1.6a2.39 2.39 0 0 1-1.9 1.13l-1.77 0.07c-1.08 0-2.15 0.08-3.23 0.16a3.57 3.57 0 0 1-3.42-1.72c-0.59-0.86-1.23-1.71-1.85-2.54-0.35-0.47-0.7-0.93-1-1.41a1.38 1.38 0 0 0-1.62-0.58 26.72 26.72 0 0 0-7.51 3.38 1.21 1.21 0 0 0-0.36 0.78 5.68 5.68 0 0 0 0.16 1.65c0.17 0.85 0.36 1.69 0.55 2.53q0.24 1 0.45 2a2.62 2.62 0 0 1-0.55 2.44c-1.25 1.33-2.7 2.85-4.25 4.33a2.74 2.74 0 0 1-1.74 0.59 8.75 8.75 0 0 1-1.63-0.18l-0.49-0.09-1.3-0.22c-0.8-0.15-1.63-0.29-2.44-0.38a1.8 1.8 0 0 0-2 1.21c-0.31 0.74-0.64 1.55-0.93 2.36-0.38 1.09-0.75 2.18-1.12 3.27l-0.45 1.33v0.4a3.88 3.88 0 0 0 1.8 1.78c0.78 0.51 1.54 1 2.31 1.48l1.6 1a2.44 2.44 0 0 1 1.14 2c0 0.59 0.06 1.18 0.08 1.77 0 1 0.09 1.93 0.15 2.9a4 4 0 0 1-2 3.91c-1.08 0.7-2.21 1.5-3.56 2.52a1.5 1.5 0 0 0-0.63 2.15c1 2.42 1.78 4.25 2.57 5.94 0.72 1.52 1.09 1.7 2.82 1.38h0.15l1.35-0.31c1-0.22 2-0.45 3-0.7a3.67 3.67 0 0 1 1-0.12zm22.57-2.23a15.25 15.25 0 0 1-15.17-15.24 15 15 0 0 1 4.5-10.75 15.13 15.13 0 0 1 26 10.72 14.46 14.46 0 0 1-4.1 10.49 15.19 15.19 0 0 1-11.23 4.78zm-0.19-29.57a14.32 14.32 0 0 0-9.8 4.28 14.07 14.07 0 0 0-4.21 10 14.24 14.24 0 0 0 14.17 14.24 14.23 14.23 0 0 0 10.46-4.47 13.48 13.48 0 0 0 3.82-9.75 14.26 14.26 0 0 0-14.41-14.32z" fill="#d1d3d4"/>
  <path d="m192.25 164.52c-1-0.13-1.4-0.82-1.54-1.76a15.6 15.6 0 0 0-0.53-2.44 1.8 1.8 0 0 0-0.81-1 30.75 30.75 0 0 0-3.2-1.32 1.22 1.22 0 0 0-0.91 0.12c-0.77 0.44-1.51 1-2.26 1.43-1.24 0.79-1.79 0.77-2.82-0.25-0.87-0.85-1.64-1.8-2.47-2.69a1 1 0 0 1-0.11-1.35c0.42-0.68 0.81-1.38 1.29-2a2.9 2.9 0 0 0 0.34-3.23c-1.35-3-0.91-2.61-4-3.19-1.83-0.35-2.07-0.53-2.15-2.38 0-1.11 0-2.24 0.06-3.36a1.24 1.24 0 0 1 1.1-1.33c0.82-0.19 1.64-0.33 2.47-0.47a2.41 2.41 0 0 0 1.94-1.5c0.28-0.66 0.57-1.32 0.84-2a2.19 2.19 0 0 0-0.2-2.07c-0.55-0.88-1.07-1.79-1.61-2.69a1 1 0 0 1 0.15-1.35c1.11-1.09 2.23-2.18 3.4-3.21a1.07 1.07 0 0 1 0.93-0.08 10.58 10.58 0 0 1 1.52 0.89c0.42 0.27 0.82 0.56 1.23 0.83a2.13 2.13 0 0 0 2 0.22c0.93-0.34 1.83-0.74 2.73-1.14a1.8 1.8 0 0 0 1-1.42c0.18-1 0.43-1.92 0.65-2.89a0.88 0.88 0 0 1 0.9-0.73h4.61a1.08 1.08 0 0 1 1.13 1c0.2 0.89 0.42 1.78 0.57 2.68a2 2 0 0 0 1.31 1.71c0.93 0.37 1.84 0.81 2.78 1.15a1.22 1.22 0 0 0 0.9-0.09c0.91-0.52 1.77-1.12 2.67-1.65 1.07-0.63 1.24-0.64 2.16 0.2a31.72 31.72 0 0 1 2.46 2.46 1.64 1.64 0 0 1 0.17 2.33c-0.52 0.86-1.08 1.7-1.63 2.55a1.1 1.1 0 0 0-0.11 1.13c0.44 1 0.84 2.08 1.34 3.08a1.58 1.58 0 0 0 0.89 0.69 24.21 24.21 0 0 0 2.39 0.52c1.44 0.28 1.89 0.77 1.93 2.23v3.08c0 1.03-0.41 1.55-1.53 1.79-0.77 0.16-1.53 0.29-2.3 0.43a2.15 2.15 0 0 0-1.74 1.31c-0.41 1-0.82 1.93-1.15 2.91a1.3 1.3 0 0 0 0.13 1c0.48 0.86 1.07 1.66 1.57 2.51 0.6 1 0.59 1.28-0.21 2.17a34.68 34.68 0 0 1-2.5 2.5c-0.86 0.76-1.1 0.76-2.08 0.18-0.74-0.43-1.46-0.9-2.15-1.39a2.1 2.1 0 0 0-2.25-0.24l-2 0.91a2.27 2.27 0 0 0-1.34 1.8c-0.09 0.48-0.16 1-0.25 1.46-0.19 1.05-0.37 2.11-1.81 2.07zm2.41-12.68a6.69 6.69 0 0 0 3.85-0.8 8.82 8.82 0 1 0-10.51-13.91c-2.12 2.22-2.56 4.88-2.22 7.77a5 5 0 0 0 0.47 1.75c1.75 3.35 4.23 5.41 8.41 5.19z" fill="#fff"/>
  <path d="m196.22 165h-4a2.29 2.29 0 0 1-2-2.18 15.19 15.19 0 0 0-0.51-2.37 1.44 1.44 0 0 0-0.56-0.72 30.17 30.17 0 0 0-3.15-1.3 0.83 0.83 0 0 0-0.49 0.08c-0.52 0.29-1 0.62-1.51 0.95l-0.73 0.47c-1.46 0.93-2.26 0.85-3.45-0.31-0.53-0.53-1-1.1-1.52-1.64-0.31-0.36-0.63-0.72-1-1.07a1.49 1.49 0 0 1-0.17-2l0.31-0.5a15.22 15.22 0 0 1 1-1.55 2.4 2.4 0 0 0 0.28-2.73l-0.33-0.75c-0.76-1.7-0.76-1.7-2.5-2l-0.77-0.14c-1.95-0.37-2.46-0.7-2.55-2.84 0-1.15 0-2.27 0.06-3.42a1.74 1.74 0 0 1 1.49-1.79c0.73-0.17 1.47-0.3 2.2-0.42l0.29-0.05a1.92 1.92 0 0 0 1.57-1.2l0.09-0.23c0.26-0.58 0.51-1.17 0.75-1.76a1.64 1.64 0 0 0-0.17-1.61l-0.92-1.54-0.69-1.16a1.5 1.5 0 0 1 0.23-2c1-1 2.21-2.15 3.41-3.22a1.54 1.54 0 0 1 1.47-0.17 7.77 7.77 0 0 1 1.26 0.72l0.33 0.21 0.63 0.42 0.6 0.41a1.68 1.68 0 0 0 1.53 0.18c0.86-0.33 1.7-0.69 2.7-1.13a1.28 1.28 0 0 0 0.72-1.06c0.13-0.69 0.3-1.37 0.46-2l0.2-0.86a1.39 1.39 0 0 1 1.38-1.12h4.62a1.58 1.58 0 0 1 1.62 1.38l0.15 0.68c0.16 0.67 0.31 1.35 0.43 2a1.51 1.51 0 0 0 1 1.33l1.15 0.49c0.54 0.23 1.08 0.46 1.62 0.66a0.72 0.72 0 0 0 0.49-0.06c0.49-0.28 1-0.59 1.46-0.9s0.79-0.5 1.2-0.74c1.26-0.75 1.67-0.71 2.74 0.25 0.88 0.8 1.72 1.64 2.5 2.5a2.14 2.14 0 0 1 0.23 2.93c-0.47 0.77-1 1.52-1.45 2.28l-0.19 0.28a0.64 0.64 0 0 0-0.08 0.66q0.21 0.47 0.39 0.93c0.3 0.71 0.6 1.44 0.95 2.12a1 1 0 0 0 0.58 0.44 15.26 15.26 0 0 0 1.74 0.39l0.61 0.12c1.67 0.33 2.28 1 2.33 2.7v3.12a2.06 2.06 0 0 1-1.93 2.26c-0.67 0.14-1.35 0.26-2 0.38l-0.28 0.05a1.66 1.66 0 0 0-1.37 1c-0.44 1-0.82 1.94-1.14 2.87a0.81 0.81 0 0 0 0.09 0.55c0.25 0.45 0.53 0.88 0.81 1.31s0.52 0.79 0.76 1.2c0.72 1.23 0.67 1.72-0.27 2.76a33.68 33.68 0 0 1-2.54 2.53c-1 0.9-1.48 1-2.67 0.24-0.74-0.44-1.47-0.91-2.18-1.42a1.61 1.61 0 0 0-1.75-0.18l-1 0.42-1.07 0.48a1.83 1.83 0 0 0-1.06 1.43l-0.12 0.72c0 0.25-0.08 0.5-0.13 0.75-0.14 1.08-0.4 2.49-2.18 2.49zm-3.93-1h3.85c0.94 0 1.1-0.43 1.32-1.65l0.12-0.74 0.12-0.73a2.82 2.82 0 0 1 1.63-2.16l1.09-0.49 0.94-0.42a2.62 2.62 0 0 1 2.75 0.28c0.68 0.49 1.39 0.95 2.11 1.37s0.81 0.48 1.49-0.12a33.72 33.72 0 0 0 2.47-2.46c0.65-0.72 0.64-0.74 0.14-1.59-0.23-0.39-0.48-0.77-0.73-1.16s-0.58-0.89-0.84-1.36a1.83 1.83 0 0 1-0.17-1.36c0.33-1 0.72-1.9 1.17-2.94a2.66 2.66 0 0 1 2.11-1.61l0.29-0.06c0.66-0.11 1.33-0.23 2-0.37 0.91-0.19 1.11-0.43 1.14-1.32v-3c0-1.2-0.31-1.51-1.53-1.75l-0.6-0.12a15.62 15.62 0 0 1-1.84-0.41 2.11 2.11 0 0 1-1.19-1c-0.36-0.72-0.67-1.46-1-2.19-0.13-0.3-0.25-0.61-0.38-0.91a1.61 1.61 0 0 1 0.15-1.61l0.19-0.28c0.49-0.74 1-1.49 1.43-2.25s0.45-1.11-0.11-1.74a32.65 32.65 0 0 0-2.43-2.42c-0.71-0.65-0.71-0.65-1.56-0.14-0.4 0.23-0.78 0.48-1.17 0.73s-1 0.63-1.51 0.92a1.7 1.7 0 0 1-1.32 0.13c-0.56-0.21-1.12-0.45-1.67-0.68-0.38-0.17-0.75-0.33-1.13-0.48a2.49 2.49 0 0 1-1.61-2.09c-0.11-0.66-0.26-1.31-0.41-2l-0.16-0.68c-0.11-0.5-0.32-0.62-0.64-0.6h-4.6a0.38 0.38 0 0 0-0.42 0.35l-0.21 0.86c-0.16 0.67-0.32 1.33-0.44 2a2.25 2.25 0 0 1-1.3 1.79c-1 0.45-1.87 0.82-2.76 1.15a2.64 2.64 0 0 1-2.42-0.27c-0.21-0.13-0.42-0.28-0.62-0.42l-0.61-0.4-0.34-0.23a7.72 7.72 0 0 0-1.1-0.63 0.63 0.63 0 0 0-0.43 0c-1.17 1-2.3 2.14-3.36 3.18a0.51 0.51 0 0 0-0.07 0.73l0.69 1.17c0.3 0.51 0.6 1 0.91 1.52a2.67 2.67 0 0 1 0.28 2.66c-0.25 0.6-0.5 1.19-0.76 1.78l-0.09 0.22a3 3 0 0 1-2.32 1.8h-0.3c-0.7 0.12-1.43 0.24-2.13 0.41-0.54 0.12-0.7 0.31-0.72 0.86-0.06 1.12-0.1 2.22-0.06 3.32 0.07 1.59 0.13 1.6 1.74 1.91l0.75 0.13c2.16 0.39 2.31 0.51 3.24 2.6l0.33 0.74a3.4 3.4 0 0 1-0.39 3.74c-0.35 0.46-0.64 0.95-1 1.46l-0.31 0.52a0.51 0.51 0 0 0 0 0.74c0.34 0.35 0.66 0.72 1 1.08 0.48 0.54 1 1.09 1.48 1.59 0.85 0.84 1.13 0.87 2.2 0.19l0.72-0.47c0.52-0.34 1-0.68 1.57-1a1.74 1.74 0 0 1 1.32-0.15 33.07 33.07 0 0 1 3.25 1.34 2.37 2.37 0 0 1 1.07 1.31 15.68 15.68 0 0 1 0.54 2.53c0.21 0.91 0.5 1.27 1.16 1.35zm3-11.66h-0.58c-3.95 0.2-6.83-1.58-8.82-5.46a5.69 5.69 0 0 1-0.52-1.92c-0.4-3.48 0.35-6.08 2.36-8.18a9.21 9.21 0 0 1 8-2.8 9.34 9.34 0 0 1 3.12 17.49 6.77 6.77 0 0 1-3.61 0.89zm-0.58-1a6.06 6.06 0 0 0 3.57-0.74 8.34 8.34 0 0 0-2.78-15.6 8.2 8.2 0 0 0-7.1 2.51c-1.79 1.86-2.45 4.2-2.09 7.37a4.94 4.94 0 0 0 0.42 1.57c1.82 3.55 4.34 5.12 7.9 4.92z" fill="#d1d3d4"/>
  <path d="m214.19 133.1a2.69 2.69 0 0 1 0.2-0.51 6.16 6.16 0 0 1 0.63-0.8 2.91 2.91 0 0 0 0.54-3.8 3.47 3.47 0 0 0-1.26-1.06 12.16 12.16 0 0 0-1.56-0.7 0.74 0.74 0 0 1-0.48-0.82c0.14-1 0.27-2 0.46-3a0.9 0.9 0 0 1 0.57-0.52 6.07 6.07 0 0 1 1.35-0.14 2.73 2.73 0 0 0 2.35-1.35 2.66 2.66 0 0 0 0.23-3.23c-0.87-1.49-0.74-1.63 0.65-2.71 0.49-0.39 1-0.73 1.52-1.11a0.57 0.57 0 0 1 0.82 0c0.53 0.46 1.08 0.89 1.62 1.35a1.66 1.66 0 0 0 1.49 0.39c0.37-0.07 0.74-0.17 1.11-0.25a2.29 2.29 0 0 0 1.85-1.78c0.63-2.22 1-1.89 2.62-1.63 0.54 0.09 1.08 0.24 1.62 0.34a0.78 0.78 0 0 1 0.71 0.75c0.06 0.72 0.17 1.44 0.22 2.16a1.07 1.07 0 0 0 0.55 1c2.28 1.43 2.05 1.45 4.34 0.36 0.84-0.4 1.11-0.34 1.69 0.35s1 1.3 1.48 2a0.78 0.78 0 0 1 0 1.08c-0.54 0.66-1.09 1.32-1.6 2a1 1 0 0 0-0.17 0.69c0.12 0.61 0.31 1.21 0.48 1.82a1.68 1.68 0 0 0 1.22 1.23 8.47 8.47 0 0 1 1.67 0.71 1.09 1.09 0 0 1 0.47 0.81 25.79 25.79 0 0 1-0.31 2.77 1 1 0 0 1-1 0.87 2.68 2.68 0 0 1-0.4 0 3.35 3.35 0 0 0-3.45 2.19 1.92 1.92 0 0 0-0.1 1.7l0.66 1.51a1 1 0 0 1-0.31 1.35c-0.71 0.52-1.41 1.05-2.1 1.58a0.78 0.78 0 0 1-1.12-0.07c-0.47-0.41-1-0.81-1.42-1.23a1.52 1.52 0 0 0-1.42-0.43 12.36 12.36 0 0 0-1.81 0.48 1.61 1.61 0 0 0-0.75 0.71 7.26 7.26 0 0 0-0.54 1.5 1.26 1.26 0 0 1-1.38 1.08c-0.92-0.1-1.84-0.3-2.75-0.46a0.77 0.77 0 0 1-0.68-0.79c0-0.44-0.06-0.87-0.1-1.31a4.07 4.07 0 0 0-0.08-0.79 3.33 3.33 0 0 0-4-1.83c-0.48 0.24-0.93 0.52-1.42 0.72a0.83 0.83 0 0 1-0.68 0 7.36 7.36 0 0 1-2.14-2.85 1.6 1.6 0 0 1-0.09-0.33zm12.9-1a6 6 0 0 0 5.91-5.94 6.09 6.09 0 0 0-6-6.16 6.17 6.17 0 0 0-6 6.18 6 6 0 0 0 6.09 5.9z" fill="#fff"/>
  <path d="m226.24 141.26h-0.24c-0.66-0.08-1.32-0.2-2-0.32l-0.82-0.14a1.28 1.28 0 0 1-1.09-1.25l-0.06-0.79-0.03-0.76a2.63 2.63 0 0 0 0-0.49 2.88 2.88 0 0 0-3.26-1.5l-0.49 0.26a9.6 9.6 0 0 1-1 0.47 1.27 1.27 0 0 1-1.18-0.12 7.73 7.73 0 0 1-2.28-3 1.29 1.29 0 0 1-0.08-0.28v-0.1a0.51 0.51 0 0 1 0-0.3l0.05-0.13a1.59 1.59 0 0 1 0.21-0.47 6.45 6.45 0 0 1 0.68-0.88 2.43 2.43 0 0 0 0.47-3.2 3.18 3.18 0 0 0-1.07-0.87 6.75 6.75 0 0 0-1-0.46l-0.54-0.23a1.21 1.21 0 0 1-0.77-1.34l0.07-0.56c0.12-0.8 0.23-1.63 0.39-2.45a1.39 1.39 0 0 1 0.93-0.91 6.38 6.38 0 0 1 1.47-0.15 2.21 2.21 0 0 0 2-1.13 2.16 2.16 0 0 0 0.2-2.69c-1-1.74-0.77-2.16 0.78-3.37 0.29-0.22 0.59-0.43 0.89-0.64l0.65-0.47a1.06 1.06 0 0 1 1.44 0.07l0.89 0.74 0.72 0.61a1.21 1.21 0 0 0 1.07 0.28l0.57-0.13 0.54-0.12a1.81 1.81 0 0 0 1.45-1.44c0.63-2.23 1.26-2.33 2.76-2.06l0.42 0.08c0.32 0 0.64 0.12 1 0.2l0.67 0.14a1.26 1.26 0 0 1 1.12 1.2c0 0.3 0.06 0.6 0.09 0.89s0.1 0.85 0.13 1.28a0.6 0.6 0 0 0 0.32 0.57l0.39 0.24c1.56 1 1.56 1 3.24 0.2l0.23-0.11a1.56 1.56 0 0 1 2.29 0.48c0.37 0.44 0.72 0.91 1.06 1.38l0.43 0.59a1.28 1.28 0 0 1 0 1.7l-0.07 0.09c-0.52 0.62-1 1.25-1.52 1.9a0.55 0.55 0 0 0-0.08 0.29c0.09 0.45 0.22 0.89 0.34 1.33l0.13 0.46a1.2 1.2 0 0 0 0.89 0.89 8 8 0 0 1 1.77 0.75 1.58 1.58 0 0 1 0.72 1.26c0 0.93-0.17 1.83-0.31 2.83a1.45 1.45 0 0 1-1.52 1.29h-0.12a1.82 1.82 0 0 1-0.33 0 2.84 2.84 0 0 0-3 1.91 1.4 1.4 0 0 0-0.09 1.28l0.18 0.42 0.48 1.09a1.49 1.49 0 0 1-0.48 2c-0.7 0.51-1.39 1-2.08 1.56a1.28 1.28 0 0 1-1.76-0.08l-0.58-0.51c-0.29-0.24-0.58-0.48-0.85-0.74a1 1 0 0 0-1-0.3l-0.28 0.06a9.17 9.17 0 0 0-1.46 0.4 1.13 1.13 0 0 0-0.49 0.48 6.89 6.89 0 0 0-0.5 1.39 1.75 1.75 0 0 1-1.7 1.43zm-6.88-6.36a4.1 4.1 0 0 1 1.68 0.39 3.31 3.31 0 0 1 1.92 2 3.47 3.47 0 0 1 0.08 0.68l0.05 0.74c0 0.25 0 0.51 0.06 0.76s0.12 0.33 0.26 0.35l0.83 0.15c0.62 0.11 1.26 0.23 1.89 0.3 0.16 0 0.63 0.07 0.85-0.71a7.79 7.79 0 0 1 0.57-1.6 2.06 2.06 0 0 1 1-0.94 9.15 9.15 0 0 1 1.61-0.44l0.28-0.07a2 2 0 0 1 1.86 0.55c0.26 0.24 0.54 0.48 0.81 0.71l0.6 0.52c0.23 0.2 0.32 0.17 0.49 0 0.69-0.53 1.39-1.06 2.1-1.58 0.25-0.18 0.34-0.34 0.16-0.74s-0.33-0.74-0.48-1.1l-0.19-0.42a2.41 2.41 0 0 1 0.11-2.12 3.84 3.84 0 0 1 3.94-2.47 0.43 0.43 0 0 0 0.16 0h0.19c0.4 0 0.51-0.18 0.55-0.44 0.14-1 0.26-1.84 0.3-2.72a0.59 0.59 0 0 0-0.23-0.36 7.51 7.51 0 0 0-1.57-0.66 2.21 2.21 0 0 1-1.55-1.58l-0.12-0.45c-0.13-0.47-0.27-0.93-0.36-1.41a1.5 1.5 0 0 1 0.26-1.08c0.49-0.66 1-1.3 1.54-1.94l0.08-0.09a0.3 0.3 0 0 0 0-0.46l-0.44-0.6c-0.33-0.45-0.66-0.9-1-1.33s-0.46-0.52-1.09-0.22l-0.23 0.11c-2.07 1-2.27 1-4.21-0.25l-0.38-0.25a1.56 1.56 0 0 1-0.79-1.35c0-0.41-0.07-0.81-0.12-1.22s-0.07-0.62-0.1-0.92 0-0.26-0.31-0.31-0.47-0.09-0.7-0.15-0.6-0.13-0.9-0.18l-0.45-0.08c-1.12-0.21-1.17-0.22-1.61 1.34a2.79 2.79 0 0 1-2.23 2.14l-0.51 0.12-0.6 0.13a2.14 2.14 0 0 1-1.91-0.5l-0.72-0.59-0.91-0.76c-0.06-0.06-0.1-0.07-0.1-0.08s0 0-0.09 0l-0.67 0.49c-0.29 0.2-0.57 0.4-0.84 0.61-1.2 0.93-1.2 0.93-0.53 2.07a3.18 3.18 0 0 1-0.24 3.76 3.21 3.21 0 0 1-2.76 1.57 5.73 5.73 0 0 0-1.24 0.12 0.58 0.58 0 0 0-0.21 0.17c-0.14 0.75-0.26 1.57-0.37 2.36l-0.07 0.56c0 0.11 0 0.2 0.19 0.29l0.5 0.21a7.42 7.42 0 0 1 1.11 0.52 3.87 3.87 0 0 1 1.44 1.25 3.4 3.4 0 0 1-0.61 4.39 4.89 4.89 0 0 0-0.58 0.73 1.38 1.38 0 0 0-0.09 0.23v0.08a6.83 6.83 0 0 0 2 2.65h0.18c0.3-0.12 0.58-0.27 0.87-0.42l0.52-0.28a2.44 2.44 0 0 1 1.07-0.18zm7.75-2.32a6.5 6.5 0 0 1-4.72-11.12 6.72 6.72 0 0 1 4.6-2 6.61 6.61 0 0 1 6.54 6.66 6.46 6.46 0 0 1-6.42 6.46zm0-1a5.45 5.45 0 0 0 5.39-5.45 5.62 5.62 0 0 0-5.55-5.65 5.5508 5.5508 0 1 0 0.19 11.1z" fill="#d1d3d4"/>
  <rect x="107.37" y="220.53" width="185.27" height="48.16" rx="8.75" fill="#fff"/>
  <g fill="#231f20">
   <path d="m283.89 269.18h-167.78a9.24 9.24 0 0 1-9.24-9.24v-30.67a9.24 9.24 0 0 1 9.24-9.24h167.78a9.24 9.24 0 0 1 9.24 9.24v30.67a9.24 9.24 0 0 1-9.24 9.24zm-167.78-48.18a8.25 8.25 0 0 0-8.24 8.24v30.67a8.25 8.25 0 0 0 8.24 8.24h167.78a8.25 8.25 0 0 0 8.24-8.24v-30.64a8.25 8.25 0 0 0-8.24-8.24z"/>
   <path d="m127.35 215.22a9.87 9.87 0 0 0-1.14-5.36 39.42 39.42 0 0 1-2.4-3.4c-1-2.17-0.31-4.74-0.55-7.13a8.92 8.92 0 0 0-2.5-5.31c-1.25-1.27-2.86-2.13-4.06-3.45-2-2.16-2.52-5.2-3.63-7.9a19.71 19.71 0 0 0-7.83-9.21c2.14 4.29-2.73 9.75-0.52 14 0.7 1.36 2 2.34 2.54 3.77 1.24 3.46-2.88 7.2-1.56 10.62 0.66 1.72 2.49 2.71 3.34 4.33 1.15 2.19 0.25 4.84 0.34 7.31 0.13 3.41 2.21 6.46 4.67 8.82 1.53 1.47 3.24 2.74 4.9 4.07 2 1.58 2.82 3.25 4.56 0.7a21.9 21.9 0 0 0 3.84-11.86z"/>
   <path d="m129.56 217.17c-0.63-2.64-1.09-5.5 0-8 1.22-2.81 4.25-4.8 4.6-7.85 0.24-2-0.78-4-0.38-6s2-3.31 3.34-4.76a20 20 0 0 0 5.14-12.19 30.23 30.23 0 0 1 4.9 8.11c1.05 3 1.07 6.52-0.71 9.14a7.91 7.91 0 0 0-1.24 2c-0.6 1.94 1.06 3.76 1.92 5.6a6.44 6.44 0 0 1-0.61 6.61c-1.74 2.17-5.1 3-5.95 5.66a13.09 13.09 0 0 0-0.3 3 8.81 8.81 0 0 1-6.35 7.56c-2.06 0.5-2-0.32-2.39-2.05-0.53-2.26-1.41-4.51-1.97-6.83z"/>
   <path d="m123 198.2c-1.46-5.06-2-10.35-3.59-15.39a86 86 0 0 0-4.79-11.49l6.28 2.68c2 0.85 4.19 1.85 5.14 3.82 1.66 3.43-1.31 7.82 0.43 11.21a28.38 28.38 0 0 0 2.48 3.13c1.85 2.59 1.57 6.17 0.55 9.19-0.43 1.29-2.34 8-4 6.15-0.68-0.75-0.74-3.53-1-4.55-0.5-1.62-1.04-3.17-1.5-4.75z"/>
   <path d="m126.48 265.49c-1.25-8.28-5.18-37.46-5.22-37.75l1-0.14c0 0.3 4 29.47 5.21 37.74z"/>
   <path d="m127.87 273.32h-1c0.07-9.83 4.16-47.38 6.52-49.95l0.74 0.67c-1.57 1.7-6.13 35.81-6.26 49.28z"/>
   <path d="m130 271.44-1-0.05c0.93-21.19-3.56-65.71-3.61-66.15l1-0.11c0.04 0.45 4.55 45.04 3.61 66.31z"/>
  </g>
  <path d="m115.67 241.77h23.39l-1.64 26.56c-0.28 4.6-3.69 8.16-7.79 8.16h-4.53c-4.1 0-7.51-3.56-7.79-8.16z" fill="#fff"/>
  <path d="m129.63 277h-4.53c-4.36 0-8-3.8-8.31-8.64l-1.63-26.57a0.49 0.49 0 0 1 0.14-0.38 0.51 0.51 0 0 1 0.37-0.16h23.39a0.55 0.55 0 0 1 0.38 0.16 0.57 0.57 0 0 1 0.14 0.38l-1.64 26.57c-0.3 4.85-3.94 8.64-8.31 8.64zm-13.41-34.72 1.6 26c0.27 4.31 3.47 7.68 7.28 7.68h4.53c3.81 0 7-3.37 7.28-7.68l1.6-26z" fill="#231f20"/>
  <path d="m136.82 250.31h-18.94a0.51 0.51 0 0 1-0.5-0.5 0.5 0.5 0 0 1 0.5-0.5h18.94a0.5 0.5 0 0 1 0.5 0.5 0.51 0.51 0 0 1-0.5 0.5z" fill="#d1d3d4"/>
  <path d="m187.1 263.05a5.94 5.94 0 0 1-3.33 1.63c-1.48 0-17.42-2.94-18.08-0.76s0.64 3.28 4.46 5.07c5.1 2.41 22.25 8.06 22.25 8.06l3.75-8.82z" fill="#fff"/>
  <path d="m192.4 277.5a0.39 0.39 0 0 1-0.15 0c-0.7-0.23-17.23-5.68-22.3-8.07-3.88-1.83-5.47-3.08-4.7-5.63 0.52-1.69 5.78-1.29 15.31 0.05 1.54 0.21 2.85 0.39 3.19 0.39a5.49 5.49 0 0 0 3-1.47 0.46 0.46 0 0 1 0.57-0.09l9 5.17a0.47 0.47 0 0 1 0.19 0.58l-3.75 8.81a0.46 0.46 0 0 1-0.36 0.26zm-23.86-13.95c-1.51 0-2.31 0.17-2.41 0.5-0.54 1.77 0.33 2.7 4.21 4.53 4.59 2.17 19.2 7 21.8 7.9l3.43-8.05-8.4-4.81a6.18 6.18 0 0 1-3.39 1.51c-0.38 0-1.41-0.13-3.34-0.4a101 101 0 0 0-11.9-1.18z" fill="#231f20"/>
  <path d="m236.68 272.51s-17.1 5.87-17.83 7 0.57 2.43 5.11 2.83 24-0.65 24-0.65 0.24-5.27-1-7.95-10.28-1.23-10.28-1.23z" fill="#fff"/>
  <path d="m227.22 282.88c-1.4 0-2.54 0-3.3-0.09-3.12-0.28-5-1-5.57-2.09a1.41 1.41 0 0 1 0.12-1.45c0.75-1.16 14-5.78 18.06-7.17h0.07c1-0.16 9.51-1.44 10.84 1.48 1.25 2.75 1 7.94 1 8.16a0.45 0.45 0 0 1-0.43 0.44c-0.65 0.02-13.81 0.72-20.79 0.72zm9.57-9.93c-8 2.76-16.92 6.09-17.57 6.82a0.48 0.48 0 0 0-0.05 0.53c0.28 0.58 1.7 1.3 4.83 1.58 4.1 0.36 20.69-0.48 23.55-0.63 0-1.28 0-5.21-0.94-7.33-0.78-1.72-6.42-1.5-9.82-0.92z" fill="#231f20"/>
  <path d="m281 216.83s14-34.83 12.49-52.06-12.73-18.25-16.63-18.49-24.6-3-32.15 6.25-5.6 53.82-5.6 53.82z" fill="#2c5363"/>
  <g fill="#231f20">
   <polygon points="271.47 151.87 256.38 154.22 258.16 182.73"/>
   <path d="m258.16 183.23h-0.08a0.51 0.51 0 0 1-0.42-0.47l-1.78-28.51a0.49 0.49 0 0 1 0.42-0.53l15.09-2.35a0.51 0.51 0 0 1 0.54 0.7l-13.31 30.86a0.49 0.49 0 0 1-0.46 0.3zm-1.26-28.59 1.63 26 12.12-28.12z"/>
   <path d="m238.25 197.52a120.57 120.57 0 0 0-32.25 14.92c-7 4.75-20.05 51.32-20.05 51.32s1.46 8.06 10.78 6.8l40.67-52.76s8.74-20.48 0.85-20.28z"/>
   <path d="m194.78 271.19a9.31 9.31 0 0 1-9.36-7.35 0.55 0.55 0 0 1 0-0.22c0.53-1.91 13.18-46.8 20.25-51.6 15.14-10.27 32.27-14.93 32.44-15a1 1 0 0 1 0.25 0 3.18 3.18 0 0 1 2.81 1.4c3.06 4.5-3.06 19-3.32 19.58a0.6 0.6 0 0 1-0.06 0.11l-40.72 52.75a0.49 0.49 0 0 1-0.33 0.19 13.72 13.72 0 0 1-1.96 0.14zm-8.36-7.42c0.22 1 1.93 7.3 10 6.32l40.58-52.54c1.73-4.09 5.66-15.22 3.39-18.57a2.32 2.32 0 0 0-2-1c-1.1 0.31-17.52 4.95-32.08 14.83-6.67 4.52-19.15 48.37-19.89 50.96z"/>
   <path d="m281 216.83s-32.29-13.14-40.58-14.36c0 0-11.84 4.42-17.93 15.62s14.19 54.42 14.19 54.42a16 16 0 0 0 11.07 1.95l0.17-48.07s34.08 2.37 33.08-9.56z"/>
   <path d="m244.8 275.24a16.09 16.09 0 0 1-8.4-2.32 0.49 0.49 0 0 1-0.18-0.2c-0.83-1.77-20.31-43.57-14.17-54.87s18.08-15.8 18.2-15.85a0.42 0.42 0 0 1 0.25 0c8.24 1.21 39.37 13.85 40.69 14.38a0.54 0.54 0 0 1 0.31 0.43 5.93 5.93 0 0 1-1.82 4.83c-6.36 6.44-27.52 5.52-31.26 5.3l-0.17 47.54a0.5 0.5 0 0 1-0.4 0.49 16.6 16.6 0 0 1-3.05 0.27zm-7.73-3.08a15.68 15.68 0 0 0 10.18 1.84l0.17-47.66a0.5 0.5 0 0 1 0.16-0.36 0.53 0.53 0 0 1 0.38-0.13c0.24 0 24.49 1.62 31-5a4.94 4.94 0 0 0 1.55-3.75c-3.24-1.31-32.14-12.94-40-14.18-1.24 0.49-11.94 5-17.55 15.34-5.76 10.62 12.88 51.25 14.11 53.9z"/>
  </g>
  <path d="m223.23 236.76a0.49 0.49 0 0 1-0.49-0.41c-0.3-1.69-2.84-16.61-0.62-19.06 4.77-5.25 16.5-13.93 16.61-14a0.51 0.51 0 0 1 0.7 0.11 0.49 0.49 0 0 1-0.1 0.69c-0.12 0.09-11.77 8.72-16.47 13.89-1.43 1.57-0.23 12 0.86 18.21a0.49 0.49 0 0 1-0.4 0.58z" fill="#fff"/>
  <path d="m244.71 152.53s-5.59 10.74-8.88 16.26-10.45 13.44-10.45 13.44-25.32 9-25.49 9.49 2.4 9 2.4 9 26.59-1.91 31-4 13.32-12.3 13.32-12.3z" fill="#2c5363"/>
  <path d="m272.39 118.14a6.2 6.2 0 0 0-1.58-0.39c-2.14-0.25-2.18 0.21-3.84-1.18a15.63 15.63 0 0 0-8.77-3.34c-6.16-0.41-10.65 2.68-9.24 9.44a19.79 19.79 0 0 0 3.6 7.37c3.48 4.82 8.4 9.19 14.33 9.64 1.76 0.13 5.07 0 6.34-1.44a16 16 0 0 0 3.26-15.24 9.06 9.06 0 0 0-1.6-3.08 6.28 6.28 0 0 0-2.5-1.78z" fill="#fff"/>
  <path d="m267.94 140.22h-1.09c-6.63-0.5-11.65-5.63-14.69-9.85a19.75 19.75 0 0 1-3.69-7.56c-0.63-3-0.14-5.56 1.4-7.34 1.73-2 4.7-2.94 8.36-2.7a16 16 0 0 1 9.06 3.46c1.1 0.92 1.32 0.93 2.23 1 0.35 0 0.78 0 1.35 0.1a7.17 7.17 0 0 1 1.7 0.42 6.77 6.77 0 0 1 2.7 1.9 9.29 9.29 0 0 1 1.69 3.25 16.4 16.4 0 0 1-3.36 15.76c-1.28 1.34-4.08 1.56-5.66 1.56zm-10.8-26.53c-2.87 0-5.15 0.84-6.51 2.4s-1.75 3.78-1.18 6.48a18.75 18.75 0 0 0 3.52 7.17c2.92 4 7.71 9 14 9.44 2.16 0.17 4.93-0.16 5.93-1.27a15.41 15.41 0 0 0 3.1-14.79 8.44 8.44 0 0 0-1.5-2.91 5.74 5.74 0 0 0-2.3-1.61 6.12 6.12 0 0 0-1.46-0.36c-0.54-0.06-0.94-0.08-1.27-0.09a3.66 3.66 0 0 1-2.83-1.19 15.1 15.1 0 0 0-8.49-3.23c-0.34-0.03-0.68-0.04-1.01-0.04z" fill="#231f20"/>
  <path d="m256.38 144.92v9.3a6.81 6.81 0 0 0 8.26 3.57c6.08-1.55 6.83-5.92 6.83-5.92l-0.28-17.21s-4.55-2.36-3.34-12.2a30.17 30.17 0 0 1-15.85 2.39s-1.87 10.76-1.21 15.5 5.5 4.5 5.59 4.57z" fill="#fff"/>
  <path d="m262.45 158.58a7.32 7.32 0 0 1-6.53-4.17 0.43 0.43 0 0 1 0-0.19v-8.85c-3.2-0.38-5.17-2.13-5.56-5-0.65-4.76 1.14-15.21 1.21-15.65a0.5 0.5 0 0 1 0.55-0.41 29.9 29.9 0 0 0 15.5-2.31 0.51 0.51 0 0 1 0.73 0.51c-1.15 9.31 3 11.67 3.07 11.69a0.52 0.52 0 0 1 0.27 0.44l0.28 17.21c0 0.28-0.88 4.8-7.21 6.41a9.09 9.09 0 0 1-2.31 0.32zm-5.57-4.47c0.31 0.66 2.41 4.52 7.63 3.19 5.71-1.45 6.46-5.47 6.46-5.52l-0.27-16.84c-1-0.67-4.2-3.54-3.44-11.66a31.12 31.12 0 0 1-14.82 2.12c-0.34 2.1-1.69 10.82-1.13 14.88 0.34 2.44 2.05 3.86 4.94 4.12a0.74 0.74 0 0 1 0.44 0.13 0.49 0.49 0 0 1 0.19 0.39z" fill="#231f20"/>
  <path d="m267.61 134.4a4.06 4.06 0 0 1 1.33-2.15 7.25 7.25 0 0 1 2.12-1.1 3.06 3.06 0 0 1 1.29-0.25 2.45 2.45 0 0 1 0.87 0.31 3.12 3.12 0 0 1 1.49 1.53 3.65 3.65 0 0 1 0.1 1.74 7.43 7.43 0 0 1-0.45 1.86 4.82 4.82 0 0 1-6.37 2.59" fill="#fff"/>
  <path d="m269.9 139.82a5.31 5.31 0 0 1-2.11-0.43 0.49 0.49 0 0 1-0.26-0.65 0.5 0.5 0 0 1 0.66-0.26 4.49 4.49 0 0 0 3.34 0 4.42 4.42 0 0 0 2.37-2.36 6.88 6.88 0 0 0 0.41-1.73 3.18 3.18 0 0 0-0.07-1.51 2.65 2.65 0 0 0-1.26-1.26 1.88 1.88 0 0 0-0.69-0.25 2.64 2.64 0 0 0-1.05 0.22 6.43 6.43 0 0 0-2 1 3.45 3.45 0 0 0-1.16 1.87 0.5 0.5 0 0 1-0.6 0.38 0.51 0.51 0 0 1-0.38-0.6 4.5 4.5 0 0 1 1.5-2.42 7.41 7.41 0 0 1 2.27-1.19 3.33 3.33 0 0 1 1.51-0.27 2.93 2.93 0 0 1 1.06 0.36 3.53 3.53 0 0 1 1.72 1.79 4.08 4.08 0 0 1 0.12 2 7.44 7.44 0 0 1-0.48 2 5.3 5.3 0 0 1-4.92 3.29z" fill="#231f20"/>
  <path d="m258.75 131s-3.3 4.7-2.57 5.55 2.88 0.34 2.88 0.34" fill="#fff"/>
  <g fill="#231f20">
   <path d="m257.77 137.58a2.56 2.56 0 0 1-2-0.67c-0.83-0.94 0.92-3.87 2.53-6.16a0.52 0.52 0 0 1 0.7-0.12 0.5 0.5 0 0 1 0.12 0.7c-1.53 2.17-2.73 4.49-2.58 5 0.39 0.43 1.77 0.3 2.37 0.16a0.51305 0.51305 0 0 1 0.23 1 6.73 6.73 0 0 1-1.37 0.09z"/>
   <ellipse transform="rotate(-3.53 263.96 130.59)" cx="264.15" cy="130.66" rx=".79" ry="1.11"/>
   <ellipse transform="rotate(-85.98 256.07 130.66)" cx="256.08" cy="130.66" rx="1.11" ry=".79"/>
   <path d="m261.22 139-6.08-0.38s-0.48 4 2.43 4.06 3.65-3.68 3.65-3.68z"/>
   <path d="m257.67 143.16h-0.12a2.7 2.7 0 0 1-2-0.93 5.42 5.42 0 0 1-0.87-3.69 0.51 0.51 0 0 1 0.53-0.44l6.08 0.38a0.52 0.52 0 0 1 0.36 0.19 0.53 0.53 0 0 1 0.1 0.4c-0.32 1.43-1.52 4.09-4.08 4.09zm-2.06-4a3.87 3.87 0 0 0 0.66 2.45 1.69 1.69 0 0 0 1.32 0.58c1.83 0 2.68-1.77 3-2.72z"/>
   <path d="m252.65 136a6 6 0 1 1 1-0.09 6 6 0 0 1-1 0.09zm0-11a5.1 5.1 0 0 0-0.87 0.07 5.09 5.09 0 1 0 0.87-0.07z"/>
   <path d="m264.13 135.55a6 6 0 1 1 5.91-7 6 6 0 0 1-4.86 6.93 6.2 6.2 0 0 1-1.05 0.07zm0-11a5 5 0 0 0-4.91 5.84 5 5 0 1 0 9.81-1.72 5 5 0 0 0-4.88-4.09z"/>
   <path d="m256.38 144.92s5.78 1.34 9.19-0.61c0 0-3.77 7.79-9.19 7z"/>
   <path d="m257.18 151.85a6.62 6.62 0 0 1-0.88-0.06 0.51 0.51 0 0 1-0.42-0.5v-6.37a0.5 0.5 0 0 1 0.61-0.49c0.05 0 5.63 1.27 8.83-0.55a0.5 0.5 0 0 1 0.59 0.06 0.52 0.52 0 0 1 0.11 0.59c-0.15 0.31-3.61 7.32-8.84 7.32zm-0.3-1c3.49 0.2 6.27-3.47 7.52-5.49a16.92 16.92 0 0 1-7.52 0.18z"/>
  </g>
  <path d="m287.88 150.48c4.73 0.84 23.88 45.12 17.32 50.18-10.23 7.89-45.84-0.09-45.84-0.09l2.91-13.73s22.89 0.63 23.22-4.07-13.32-26.46-11.49-29.71 13.88-2.58 13.88-2.58z" fill="#2c5363"/>
  <path d="m276.69 205.19h-0.09l-11.12-1.91a0.52 0.52 0 0 1-0.41-0.48l-0.36-13.32a0.5 0.5 0 0 1 0.45-0.51l20-2.06-8.8-30.35a0.51923 0.51923 0 0 1 1-0.28l9 30.92a0.48 0.48 0 0 1-0.07 0.42 0.51 0.51 0 0 1-0.36 0.22l-20.16 2.08 0.34 12.44 10.71 1.84a0.5016 0.5016 0 0 1-0.08 1z" fill="#231f20"/>
  <path d="m264.73 191.44a52.26 52.26 0 0 1-11.39-0.56 35.05 35.05 0 0 0-8.51-1 32.11 32.11 0 0 0-11 2.5 0.81 0.81 0 0 0-0.37 0.25c-0.34 0.47 0.46 0.93 1 0.94a15 15 0 0 0 4.54-0.57 42.75 42.75 0 0 0-10.12 5.38c-0.36 0.25-0.75 0.66-0.58 1.06s0.9 0.33 1.37 0.11l8.19-3.74a20.52 20.52 0 0 0-5.82 3.53c-0.24 0.22-0.51 0.51-0.44 0.83 0.12 0.55 0.94 0.44 1.44 0.19a48.26 48.26 0 0 0 7.11-4.34l-5.06 3.87c-0.06 0.41 0.38 0.76 0.79 0.78a2.29 2.29 0 0 0 1.17-0.41l5.65-3.26-3.52 2.47c-0.55 0.38-1.18 1-0.91 1.62s1.4 0.51 2.13 0.18a42.6 42.6 0 0 1 9-2.78 14.14 14.14 0 0 1 3.35-0.68 28.59 28.59 0 0 1 5.14 1.12c2.55 0.57 5.09 1.16 7.64 1.75" fill="#fff"/>
  <path d="m239.15 202.08a1.57 1.57 0 0 1-0.61-0.11 1.22 1.22 0 0 1-0.69-0.65 1.28 1.28 0 0 1 0-0.94l-0.54 0.31a2.75 2.75 0 0 1-1.41 0.47 1.35 1.35 0 0 1-1-0.47 1 1 0 0 1-0.25-0.6c-0.46 0.25-0.93 0.49-1.39 0.72a2 2 0 0 1-1.59 0.13 0.88 0.88 0 0 1-0.51-0.64 1.17 1.17 0 0 1 0.37-1.05l-1.66 0.76a2 2 0 0 1-1.43 0.16 0.91 0.91 0 0 1-0.54-0.51c-0.24-0.53 0-1.12 0.72-1.61a42.83 42.83 0 0 1 6.79-4h-0.88a1.8 1.8 0 0 1-1.48-0.8 0.83 0.83 0 0 1 0.07-0.86 1.25 1.25 0 0 1 0.57-0.41 32.31 32.31 0 0 1 11.12-2.54 30.11 30.11 0 0 1 7.57 0.79l1 0.2a52.48 52.48 0 0 0 11.29 0.54 0.47 0.47 0 0 1 0.47 0.44 0.47 0.47 0 0 1-0.44 0.48 53.9 53.9 0 0 1-11.49-0.57l-1-0.19a29.64 29.64 0 0 0-7.35-0.78 31.49 31.49 0 0 0-10.81 2.47l-0.18 0.09a1.45 1.45 0 0 0 0.68 0.22 14.44 14.44 0 0 0 4.34-0.54 0.45222 0.45222 0 0 1 0.28 0.86 42.85 42.85 0 0 0-10 5.33c-0.34 0.25-0.44 0.45-0.42 0.5a1 1 0 0 0 0.76-0.11l6.33-2.9c0.61-0.32 1.24-0.6 1.88-0.86a0.46 0.46 0 0 1 0.36 0.84l-1.84 0.84a20.16 20.16 0 0 0-3.87 2.63c-0.31 0.27-0.3 0.37-0.3 0.38a1.07 1.07 0 0 0 0.8-0.12 47.33 47.33 0 0 0 7-4.3 0.46 0.46 0 0 1 0.55 0.73l-4.83 3.7a0.51 0.51 0 0 0 0.3 0.13 1.74 1.74 0 0 0 0.92-0.35l5.64-3.25a0.45 0.45 0 0 1 0.61 0.14 0.46 0.46 0 0 1-0.12 0.62l-3.52 2.47c-0.45 0.32-0.88 0.77-0.75 1.07a0.33 0.33 0 0 0 0.18 0.17 2.05 2.05 0 0 0 1.34-0.23 43.09 43.09 0 0 1 9.14-2.81c0.37-0.08 0.72-0.18 1.08-0.28a8.08 8.08 0 0 1 2.38-0.41 16 16 0 0 1 3.66 0.73c0.54 0.14 1.06 0.29 1.56 0.4 2.55 0.58 5.1 1.16 7.64 1.76a0.45 0.45 0 0 1 0.34 0.55 0.46 0.46 0 0 1-0.55 0.34c-2.54-0.6-5.08-1.18-7.63-1.76-0.52-0.11-1.05-0.26-1.6-0.41a14.75 14.75 0 0 0-3.45-0.69 7.15 7.15 0 0 0-2.1 0.37c-0.38 0.11-0.76 0.21-1.15 0.29a42.23 42.23 0 0 0-8.95 2.76 3.76 3.76 0 0 1-1.41 0.36z" fill="#231f20"/>
  <path d="m249.52 158.08s-4.19 17.1-8 29.25" fill="#fff"/>
  <path d="m241.56 187.79h-0.14a0.46 0.46 0 0 1-0.3-0.57c3.73-12 7.92-29.06 8-29.23a0.46 0.46 0 0 1 0.55-0.33 0.45 0.45 0 0 1 0.34 0.55c-0.05 0.17-4.24 17.25-8 29.28a0.48 0.48 0 0 1-0.45 0.3z" fill="#231f20"/>
  <polygon points="253.34 218.23 252.79 215.72 199.25 207.96 199.47 210.35" fill="#fff"/>
  <path d="m253.34 218.73h-0.08l-53.87-7.87a0.5 0.5 0 0 1-0.42-0.45l-0.22-2.39a0.48 0.48 0 0 1 0.16-0.41 0.45 0.45 0 0 1 0.41-0.13l53.55 7.75a0.5 0.5 0 0 1 0.41 0.39l0.55 2.51a0.53 0.53 0 0 1-0.13 0.45 0.5 0.5 0 0 1-0.36 0.15zm-53.41-8.81 52.77 7.71-0.32-1.47-52.58-7.61z" fill="#231f20"/>
  <path d="m199.25 208s12.26-10.51 12.67-10.42 55.51 6.7 55.51 6.7l-14.64 11.48z" fill="#fff"/>
  <path d="m252.79 216.22h-0.07l-53.54-7.75a0.49 0.49 0 0 1-0.41-0.36 0.51 0.51 0 0 1 0.15-0.52c12.46-10.69 12.81-10.59 13.08-10.53 0.7 0.12 36.58 4.42 55.45 6.68a0.52 0.52 0 0 1 0.42 0.36 0.51 0.51 0 0 1-0.18 0.53l-14.59 11.48a0.51 0.51 0 0 1-0.31 0.11zm-52.38-8.6 52.24 7.57 13.52-10.6c-11-1.32-51.11-6.12-54.18-6.53-0.99 0.6-7.24 5.86-11.58 9.56z" fill="#231f20"/>
  <polygon points="267.43 204.24 252.79 215.72 253.34 218.23 267.64 206.63" fill="#fff"/>
  <path d="m253.34 218.73a0.47 0.47 0 0 1-0.17 0 0.5 0.5 0 0 1-0.32-0.37l-0.55-2.51a0.5 0.5 0 0 1 0.18-0.5l14.64-11.47a0.49 0.49 0 0 1 0.8 0.34l0.22 2.39a0.5 0.5 0 0 1-0.18 0.44l-14.31 11.6a0.51 0.51 0 0 1-0.31 0.08zm0-2.81 0.3 1.41 13.47-10.92-0.11-1.21z" fill="#231f20"/>
  <polygon points="245.68 182.95 252.79 215.72 199.25 207.96 188.9 173.27" fill="#fff"/>
  <g fill="#231f20">
   <path d="m252.79 216.22h-0.07l-53.54-7.75a0.51 0.51 0 0 1-0.41-0.36l-10.35-34.68a0.52 0.52 0 0 1 0.1-0.48 0.5 0.5 0 0 1 0.46-0.16l56.79 9.68a0.49 0.49 0 0 1 0.4 0.39l7.11 32.76a0.49 0.49 0 0 1-0.12 0.45 0.52 0.52 0 0 1-0.37 0.15zm-53.15-8.71 52.51 7.61-6.88-31.73-55.66-9.49z"/>
   <path d="m277.21 178.92-11-1.13a0.50249 0.50249 0 1 1 0.1-1l11 1.13a0.5 0.5 0 0 1 0.45 0.55 0.52 0.52 0 0 1-0.55 0.45z"/>
   <path d="m267.64 91.63a0.49 0.49 0 0 1-0.49-0.41c-6.94-40.83-45.35-53.17-45.73-53.29a0.51 0.51 0 0 1-0.33-0.63 0.5 0.5 0 0 1 0.62-0.33c0.4 0.12 39.39 12.65 46.43 54.08a0.51 0.51 0 0 1-0.41 0.58z"/>
   <path d="m269.48 101.39a0.49 0.49 0 0 1-0.5-0.45c-0.19-1.92-0.42-4.65-0.42-4.65l1-0.09s0.24 2.72 0.42 4.64a0.5 0.5 0 0 1-0.44 0.55z"/>
  </g>
 </g>
</svg>
