<?xml version="1.0" encoding="UTF-8"?>
<svg width="100" height="100" version="1.1" viewBox="0 0 26.458 26.458" xmlns="http://www.w3.org/2000/svg" xmlns:cc="http://creativecommons.org/ns#" xmlns:dc="http://purl.org/dc/elements/1.1/" xmlns:rdf="http://www.w3.org/1999/02/22-rdf-syntax-ns#">
  <g transform="translate(-33.69 -196.27)">
    <path d="m40.091 197.21c-0.26598-5e-3 -0.34822 0.2247-0.34822 0.2247v1e-3s-5.8977 18.615-6.0266 19.034c-0.12893 0.4195 0.26317 0.39483 0.26317 0.39483s4.0004 3e-3 4.3184 5e-3c0.31798 3e-3 0.38112-0.2576 0.38112-0.2576s0.68557-2.3635 0.72934-2.5006c0.04377-0.13716 0.14803-0.13424 0.14803-0.13424l5.5413-3e-3s8e-5 4.7407 0.0027 5.0779c0.0027 0.33716 0.32628 0.32628 0.32628 0.32628s3.6796 3e-3 4.0004-3e-3c0.32124-5e-3 0.33451-0.32353 0.33451-0.32353s-8e-3 -4.8668-0.0026-4.982c0.0053-0.11514 0.12336-0.12071 0.12336-0.12071s1.7821-5e-3 1.8864-5e-3c0.10399 0 0.15069 0.11248 0.15069 0.11248s3.2025 7.2248 3.3259 7.488c0.12336 0.26317 0.39483 0.23585 0.39483 0.23585s3.7893 3e-3 4.2197-3e-3c0.43057-5e-3 0.25229-0.35371 0.25229-0.35371s-3.6877-7.6635-3.7344-7.7869c-0.04669-0.12336 0.09047-0.17005 0.09047-0.17005s2.0673-0.58128 3.0763-2.9174c1.0087-2.336 8e-3 -4.7475 8e-3 -4.7475s-0.57452-1.7141-2.2031-2.7378c-1.6286-1.0237-3.5302-0.93773-3.5302-0.93773l-6.5832-3e-3s-1.3983-4.4007-1.4861-4.6694c-0.08781-0.26868-0.3674-0.24407-0.3674-0.24407-1.7631-0.0112-3.5308 0.0143-5.2913-2e-3zm2.6185 5.7017c0.07505-0.0224 0.10208 0.0896 0.11381 0.13026 0.08781 0.30708 2.1304 7.1974 2.1304 7.1974s0.04802 0.13716-0.10824 0.13981c-0.15626 3e-3 -4.2005 3e-3 -4.2005 3e-3s-0.16183-3e-3 -0.10957-0.1674c0.052-0.16448 2.0975-7.1782 2.0975-7.1782 0.03082-0.0463 0.03653-0.0963 0.07659-0.1245zm7.1837 3.1984c0.14803 0 3.2464 5e-3 3.2464 5e-3s0.98158-5e-3 1.6232 0.64158c0.64158 0.6471 0.58128 1.519 0.58128 1.519s0.0329 0.71835-0.34 1.19c-0.37289 0.47159-0.44967 0.46612-0.44967 0.46612s-0.47161 0.44967-1.4587 0.44967h-3.2107s-0.12336 8e-3 -0.12601-0.13159c-0.0026-0.1398-0.0026-3.9812-0.0026-3.9812h-0.0013s-0.01062-0.15891 0.13848-0.15891z"/>
  </g>
</svg>
