<?xml version="1.0" encoding="UTF-8"?>
<svg version="1.1" viewBox="0 0 225.34 223.94" xmlns="http://www.w3.org/2000/svg" xmlns:cc="http://creativecommons.org/ns#" xmlns:dc="http://purl.org/dc/elements/1.1/" xmlns:rdf="http://www.w3.org/1999/02/22-rdf-syntax-ns#">
 <g id="_521_user_interface_flatline" transform="translate(-87.332 -37.997)" data-name="#521_user_interface_flatline">
  <path d="m288.75 48.44-1.17 8.3-26.82 189.09h-130.37l26.82-189.09 1.18-8.3a11.8 11.8 0 0 1 11.31-9.91h110.55a8.4 8.4 0 0 1 8.5 9.91z" fill="#fff"/>
  <path d="m260.76 246.33h-130.37a0.5 0.5 0 0 1-0.38-0.17 0.52 0.52 0 0 1-0.12-0.4l28-197.39a12.34 12.34 0 0 1 11.81-10.37h110.55a9 9 0 0 1 6.94 3 9.17 9.17 0 0 1 2.06 7.44l-1.17 8.3-26.83 189.16a0.5 0.5 0 0 1-0.49 0.43zm-129.8-1h129.36l27.94-197a8.18 8.18 0 0 0-1.82-6.64 8 8 0 0 0-6.19-2.7h-110.55a11.31 11.31 0 0 0-10.82 9.48l-1.17 8.3z" fill="#231f20"/>
  <g fill="#d1d3d4">
   <path d="m214.2 136.64h-57.2a0.56 0.56 0 0 1-0.38-0.17 0.52 0.52 0 0 1-0.11-0.4l8.49-59.46a0.51 0.51 0 0 1 0.5-0.43h57.18a0.5 0.5 0 0 1 0.5 0.57l-8.43 59.46a0.51 0.51 0 0 1-0.55 0.43zm-56.61-1h56.18l8.29-58.46h-56.18z"/>
   <path d="m268.52 77.18h-30.52a0.5 0.5 0 0 1-0.5-0.5 0.5 0.5 0 0 1 0.5-0.5h30.53a0.5 0.5 0 0 1 0.5 0.5 0.5 0.5 0 0 1-0.51 0.5z"/>
   <path d="m267.4 85.09h-30.53a0.5 0.5 0 0 1 0-1h30.53a0.5 0.5 0 0 1 0 1z"/>
   <path d="m266.28 93h-30.54a0.51 0.51 0 0 1-0.5-0.5 0.5 0.5 0 0 1 0.5-0.5h30.54a0.5 0.5 0 0 1 0.5 0.5 0.5 0.5 0 0 1-0.5 0.5z"/>
   <path d="m265.16 100.92h-30.54a0.5 0.5 0 0 1 0-1h30.54a0.5 0.5 0 0 1 0 1z"/>
   <path d="m264 108.83h-30.5a0.5 0.5 0 0 1-0.5-0.5 0.5 0.5 0 0 1 0.5-0.5h30.5a0.5 0.5 0 0 1 0.5 0.5 0.5 0.5 0 0 1-0.5 0.5z"/>
   <path d="m254.08 116.75h-21.71a0.51 0.51 0 0 1-0.5-0.5 0.5 0.5 0 0 1 0.5-0.5h21.71a0.5 0.5 0 0 1 0.5 0.5 0.5 0.5 0 0 1-0.5 0.5z"/>
   <path d="m258.34 136.14h-27a4.76 4.76 0 0 1-4.81-5.61 6.69 6.69 0 0 1 6.4-5.61h27a4.76 4.76 0 0 1 4.82 5.61 6.69 6.69 0 0 1-6.41 5.61z"/>
   <path d="m182.25 214.33h-27a4.75 4.75 0 0 1-4.81-5.61 6.69 6.69 0 0 1 6.4-5.61h27a4.75 4.75 0 0 1 4.81 5.61 6.68 6.68 0 0 1-6.4 5.61z"/>
   <path d="m243.57 214.33h-27a4.75 4.75 0 0 1-4.81-5.61 6.68 6.68 0 0 1 6.4-5.61h27a4.75 4.75 0 0 1 4.81 5.61 6.68 6.68 0 0 1-6.4 5.61z"/>
   <path d="m194.22 195.94h-45.62a0.53 0.53 0 0 1-0.38-0.18 0.46 0.46 0 0 1-0.11-0.39l6-42.55a0.51 0.51 0 0 1 0.5-0.43h45.61a0.49 0.49 0 0 1 0.38 0.17 0.49 0.49 0 0 1 0.12 0.4l-6 42.55a0.51 0.51 0 0 1-0.5 0.43zm-45-1h44.61l5.89-41.55h-44.65z"/>
   <path d="m255.54 195.94h-45.62a0.51 0.51 0 0 1-0.38-0.18 0.5 0.5 0 0 1-0.12-0.39l6-42.55a0.5 0.5 0 0 1 0.49-0.43h45.62a0.49 0.49 0 0 1 0.38 0.17 0.49 0.49 0 0 1 0.12 0.4l-6 42.55a0.5 0.5 0 0 1-0.49 0.43zm-45-1h44.6l5.9-41.55h-44.65z"/>
   <path d="m184.05 231.49a2.08 2.08 0 0 1-1.6-0.71 2.11 2.11 0 0 1-0.48-1.71 2.69 2.69 0 0 1 2.61-2.27 2.11 2.11 0 0 1 1.6 0.7 2.08 2.08 0 0 1 0.47 1.71 2.68 2.68 0 0 1-2.6 2.28zm0.53-3.69a1.72 1.72 0 0 0-1.62 1.41 1.13 1.13 0 0 0 0.25 0.92 1.09 1.09 0 0 0 0.84 0.36 1.7 1.7 0 0 0 1.61-1.42 1.11 1.11 0 0 0-0.24-0.91 1.09 1.09 0 0 0-0.84-0.36z"/>
   <ellipse transform="rotate(-42.97 193.8 229.16)" cx="193.79" cy="229.14" rx="1.98" ry="1.72"/>
   <ellipse transform="matrix(.73 -.68 .68 .73 -101.65 200.04)" cx="203.27" cy="229.14" rx="1.98" ry="1.72"/>
   <ellipse transform="rotate(-42.97 212.76 229.15)" cx="212.75" cy="229.14" rx="1.98" ry="1.72"/>
   <path d="m177.21 62.69h-7.55a0.5 0.5 0 0 1 0-1h7.55a0.5 0.5 0 0 1 0 1z"/>
   <path d="m176.73 66.09h-7.56a0.51 0.51 0 0 1-0.5-0.5 0.5 0.5 0 0 1 0.5-0.5h7.56a0.5 0.5 0 0 1 0.5 0.5 0.51 0.51 0 0 1-0.5 0.5z"/>
   <path d="m176.24 69.48h-7.55a0.5 0.5 0 0 1-0.5-0.5 0.51 0.51 0 0 1 0.5-0.5h7.55a0.5 0.5 0 0 1 0.5 0.5 0.5 0.5 0 0 1-0.5 0.5z"/>
  </g>
  <path d="m288.75 48.44-1.17 8.3h-130.37l1.18-8.3a11.8 11.8 0 0 1 11.31-9.91h110.55a8.4 8.4 0 0 1 8.5 9.91z" fill="#231f20"/>
  <path d="m226.69 48.14h-14.36a0.5 0.5 0 0 1-0.5-0.5 0.5 0.5 0 0 1 0.5-0.5h14.36a0.5 0.5 0 0 1 0.5 0.5 0.5 0.5 0 0 1-0.5 0.5z" fill="#d1d3d4"/>
  <path d="m234 48.14h-2.54a0.51 0.51 0 0 1-0.5-0.5 0.5 0.5 0 0 1 0.5-0.5h2.54a0.5 0.5 0 0 1 0.5 0.5 0.5 0.5 0 0 1-0.5 0.5z" fill="#d1d3d4"/>
  <path d="m155.7 113.46 9.32 9.62s16.82-18.37 17-20.67a40.73 40.73 0 0 1 3.42-11.93 1 1 0 0 1 0.46-0.57c0.53-0.2 0.91 0.54 1 1.1a15.29 15.29 0 0 1-0.05 4.11c1.67-2.31 3.37-4.59 5.12-6.84a0.89 0.89 0 0 1 0.61-0.44 0.82 0.82 0 0 1 0.52 0.23 8 8 0 0 1 2.39 3.54 6.93 6.93 0 0 1 0.51 2.29c0.07 4.42-3.89 11.6-8 13.41 0 0-19.14 32.8-22.58 32.42s-17-15.69-17-15.69z" fill="#fff"/>
  <path d="m165.43 140.23h-0.08c-3.53-0.4-15.94-14.28-17.35-15.86a0.5 0.5 0 0 1 0-0.62l7.32-10.57a0.51 0.51 0 0 1 0.37-0.21 0.49 0.49 0 0 1 0.4 0.15l8.95 9.23c6.47-7.09 16.4-18.46 16.54-20a41.53 41.53 0 0 1 3.42-12.07 1.44 1.44 0 0 1 0.74-0.83 1 1 0 0 1 0.87 0.07 2 2 0 0 1 0.79 1.48 17.75 17.75 0 0 1 0.11 2.42c1.33-1.82 2.69-3.63 4.07-5.4a1.35 1.35 0 0 1 1-0.63 1.38 1.38 0 0 1 0.85 0.34 8.55 8.55 0 0 1 2.57 3.7 7.57 7.57 0 0 1 0.54 2.46c0.07 4.43-3.74 11.74-8.16 13.81-3.38 5.79-19.24 32.53-22.95 32.53zm-16.43-16.23c5.43 6.09 14.1 15 16.45 15.23 2.06 0 12.79-16.3 22.06-32.18a0.52 0.52 0 0 1 0.23-0.21c4.05-1.78 7.78-8.8 7.71-12.94a6.34 6.34 0 0 0-0.47-2.13 7.59 7.59 0 0 0-2.24-3.31c-0.13-0.11-0.18-0.13-0.2-0.13a1.4 1.4 0 0 0-0.22 0.24c-1.74 2.24-3.46 4.54-5.12 6.84a0.5 0.5 0 0 1-0.9-0.37 14.74 14.74 0 0 0 0.05-4 1.06 1.06 0 0 0-0.31-0.69 0.88 0.88 0 0 0-0.17 0.31 40.23 40.23 0 0 0-3.38 11.77c-0.21 2.35-14.32 17.87-17.15 21a0.52 0.52 0 0 1-0.36 0.16 0.64 0.64 0 0 1-0.37-0.15l-8.89-9.18z" fill="#231f20"/>
  <path d="m90 251.37s-3.25 8.9-1.81 9.76 30.14 0 28.41-1.72-9.37-7.46-9.37-7.46" fill="#fff"/>
  <path d="m94.77 261.94c-3.67 0-6.43-0.13-6.85-0.38-1.56-0.93 0.34-6.89 1.6-10.36a0.52 0.52 0 0 1 0.65-0.3 0.5 0.5 0 0 1 0.29 0.64c-1.6 4.41-2.55 8.69-2 9.17 2 0.89 24.45-0.16 27.51-1.22-2.11-1.95-9-7.09-9-7.14a0.5 0.5 0 1 1 0.6-0.8c0.31 0.23 7.7 5.78 9.43 7.51a0.68 0.68 0 0 1 0.07 0.92c-1.07 1.31-14.01 1.96-22.3 1.96z" fill="#231f20"/>
  <path d="m119 81.45c-1.36-0.06-2.72-0.29-4.29-0.43s-3.35-0.67-3.38-2.13c0-1.26 1.48-2.3 1.15-3.51a2.77 2.77 0 0 0-0.52-0.89 13.56 13.56 0 0 1 2.34-18.64c-0.41 0.14-0.85-0.27-0.89-0.7a1.69 1.69 0 0 1 0.47-1.18 8.45 8.45 0 0 1 4.12-2.49 25.84 25.84 0 0 1 15.23 0c3.8 1.11 8.37 4.14 7.87 8.73a3.64 3.64 0 0 1-3.14 3.34c-0.85 4.92-3.43 8.28-6.67 11.84a19.86 19.86 0 0 1-8 5.44 10.81 10.81 0 0 1-4.29 0.62z" fill="#fff"/>
  <path d="m119.62 82h-0.62c-0.81 0-1.6-0.13-2.45-0.23-0.59-0.07-1.2-0.14-1.86-0.2-2.37-0.2-3.8-1.18-3.83-2.62a3.58 3.58 0 0 1 0.68-1.91c0.33-0.55 0.61-1 0.49-1.48a2.16 2.16 0 0 0-0.39-0.65 14.08 14.08 0 0 1 1.71-18.91 1.4 1.4 0 0 1-0.41-0.84 2.13 2.13 0 0 1 0.58-1.55 9 9 0 0 1 4.31-2.61 26.38 26.38 0 0 1 15.52 0c4.46 1.3 8.73 4.67 8.22 9.27a4.24 4.24 0 0 1-3.2 3.74c-1 5.06-3.86 8.56-6.73 11.72a20.25 20.25 0 0 1-8.19 5.57 11.29 11.29 0 0 1-3.83 0.7zm-5.37-26.64a0.55 0.55 0 0 1 0.48 0.27 0.51 0.51 0 0 1-0.09 0.64 13.08 13.08 0 0 0-2.25 17.95 3 3 0 0 1 0.6 1.06 2.85 2.85 0 0 1-0.59 2.25 2.9 2.9 0 0 0-0.54 1.38c0 1.33 2.44 1.6 2.92 1.65 0.66 0 1.29 0.13 1.89 0.2 0.82 0.1 1.6 0.19 2.38 0.22a10.21 10.21 0 0 0 4.07-0.58 19.18 19.18 0 0 0 7.78-5.29c3.56-3.91 5.77-7.06 6.55-11.59a0.5 0.5 0 0 1 0.47-0.42 3.16 3.16 0 0 0 2.66-2.89c0.5-4.59-4.49-7.32-7.51-8.2a25.4 25.4 0 0 0-14.93 0 7.74 7.74 0 0 0-3.84 2.32 1.23 1.23 0 0 0-0.37 0.82 0.38 0.38 0 0 0 0.16 0.25z" fill="#231f20"/>
  <path d="m98.58 111s-10.58 21.54-9.76 28.14 22.68 4 22.68 4l-1.15-32.72z" fill="#fff"/>
  <path d="m102.48 144.16h-2c-7.66-0.24-11.75-1.9-12.14-4.92-0.87-6.67 9.37-27.53 9.8-28.41a0.52 0.52 0 0 1 0.43-0.28l11.77-0.57a0.49 0.49 0 0 1 0.36 0.13 0.46 0.46 0 0 1 0.16 0.35l1.14 32.68a0.51 0.51 0 0 1-0.44 0.52 90 90 0 0 1-9.08 0.5zm-3.58-32.66c-1.2 2.47-10.36 21.59-9.58 27.58 0.68 4.92 15.43 4.32 21.68 3.63l-1.13-31.71z" fill="#231f20"/>
  <path d="m140.78 247.16 0.57 14s26.22 0.19 24.69-1.72-13.4-10.33-13.4-10.33l-1.91-10.34z" fill="#fff"/>
  <path d="m144.72 261.65h-3.37a0.5 0.5 0 0 1-0.5-0.48l-0.57-14a0.51 0.51 0 0 1 0.17-0.4l10-8.42a0.51 0.51 0 0 1 0.49-0.09 0.52 0.52 0 0 1 0.32 0.38l1.88 10.14c1.5 1.07 11.85 8.46 13.33 10.31a0.73 0.73 0 0 1 0.1 0.77c-0.76 1.5-12.81 1.79-21.85 1.79zm-2.89-1c10.53 0.06 21.75-0.34 23.63-1.13-1.68-1.76-9.2-7.25-13.11-10a0.47 0.47 0 0 1-0.2-0.31l-1.76-9.49-9.1 7.71z" fill="#231f20"/>
  <path d="m145.53 149 10.17 102-16.84 0.38-19.13-72.06-10.6 72.68-19.52-1s3.4-40.57 5.17-56 4.51-42.14 4.51-42.14z" fill="#231f20"/>
  <path d="m139.26 70.72s3.51 5.79 2.69 6.93-3.35 0.26-3.35 0.26" fill="#fff"/>
  <path d="m140.43 78.73a6.57 6.57 0 0 1-2-0.35 0.5 0.5 0 0 1 0.32-0.94c0.72 0.24 2.33 0.54 2.78-0.09s-0.95-3.47-2.71-6.37a0.5 0.5 0 1 1 0.85-0.51c1.11 1.82 3.59 6.2 2.68 7.47a2.28 2.28 0 0 1-1.92 0.79z" fill="#231f20"/>
  <path d="m138.75 63.24c2.3 2 1.45 6.1 1.33 8.76q-0.27 5.61-0.78 11.22c-0.22 2.36-6.37 2.18-7.43 1.43l0.61 9.41-12.73-5.45 0.83-10.81s4.06 0.18 6.65-4.56 2.77-12.18 2.77-12.18 6.51 0.2 8.75 2.18z" fill="#fff"/>
  <path d="m132.48 94.56a0.45 0.45 0 0 1-0.2 0l-12.72-5.45a0.52 0.52 0 0 1-0.31-0.5l0.83-10.81a0.5 0.5 0 0 1 0.52-0.46c0.15 0 3.79 0.09 6.19-4.3 2.5-4.58 2.71-11.88 2.71-12a0.48 0.48 0 0 1 0.16-0.35 0.44 0.44 0 0 1 0.36-0.13c0.27 0 6.71 0.23 9.06 2.31 2.1 1.85 1.82 5.1 1.6 7.72 0 0.5-0.08 1-0.1 1.43-0.18 3.73-0.44 7.51-0.78 11.24a2.18 2.18 0 0 1-1.47 1.74 10.46 10.46 0 0 1-5.91 0.36l0.58 8.64a0.5 0.5 0 0 1-0.49 0.53zm-12.2-6.27 11.64 5-0.54-8.6a0.47 0.47 0 0 1 0.25-0.47 0.49 0.49 0 0 1 0.53 0 9.08 9.08 0 0 0 5.75-0.12c0.56-0.25 0.86-0.57 0.89-1 0.35-3.71 0.61-7.48 0.78-11.19 0-0.46 0.06-1 0.1-1.48 0.21-2.39 0.46-5.36-1.26-6.88-1.74-1.54-6.41-1.94-7.94-2-0.09 1.79-0.56 7.77-2.81 11.9s-5.41 4.7-6.63 4.8z" fill="#231f20"/>
  <path d="m158.28 114.29s-15.05-15.9-21-21.88c-5.53-5.54-21.61-10.58-28.93-2.64 0 0-12 16.79-14.35 26.55l7 4.31a321.33 321.33 0 0 0-2.7 34.87c13.28 10.5 47.23-6.5 47.23-6.5l-3.07-24 5.49 5.5z" fill="#2c5363"/>
  <path d="m139.32 80.42s-3 1.67-4.4-1.39" fill="#fff"/>
  <path d="m137.53 81.38a3.57 3.57 0 0 1-1-0.15 3.5 3.5 0 0 1-2.07-2 0.50112 0.50112 0 0 1 0.91-0.42 2.55 2.55 0 0 0 1.46 1.45 3.16 3.16 0 0 0 2.24-0.29 0.51 0.51 0 0 1 0.68 0.2 0.48 0.48 0 0 1-0.19 0.67 4.41 4.41 0 0 1-2.03 0.54z" fill="#231f20"/>
  <path d="m132 72.85a5.1 5.1 0 0 0-0.95-2.61 7 7 0 0 0-1.29-1.75 2.45 2.45 0 0 0-2-0.7 2.32 2.32 0 0 0-1.52 1.11 4.51 4.51 0 0 0-0.54 1.84 8.07 8.07 0 0 0 3.43 7.26l-0.2-0.23" fill="#fff"/>
  <g fill="#231f20">
   <path d="m129.13 78.51a0.47 0.47 0 0 1-0.28-0.09 8.58 8.58 0 0 1-3.65-7.73 4.81 4.81 0 0 1 0.61-2 2.72 2.72 0 0 1 1.85-1.34 2.92 2.92 0 0 1 2.42 0.82 7.48 7.48 0 0 1 1.38 1.83 5.48 5.48 0 0 1 1 2.88 0.5 0.5 0 0 1-1 0 4.57 4.57 0 0 0-0.88-2.35 6.7 6.7 0 0 0-1.19-1.63 2 2 0 0 0-1.58-0.57 1.77 1.77 0 0 0-1.17 0.87 3.84 3.84 0 0 0-0.47 1.62 7.6 7.6 0 0 0 2.79 6.5 0.51 0.51 0 0 1 0.33 0.17l0.2 0.23a0.5 0.5 0 0 1 0 0.66 0.5 0.5 0 0 1-0.36 0.13z"/>
   <path d="m131.87 84.65a10 10 0 0 1-4.54-3.36s0 5.71 4.81 7.55z"/>
   <path d="m132.14 89.34h-0.18c-5.08-1.94-5.13-8-5.13-8a0.49 0.49 0 0 1 0.36-0.48 0.5 0.5 0 0 1 0.56 0.22 9.45 9.45 0 0 0 4.25 3.09 0.5 0.5 0 0 1 0.33 0.44l0.27 4.2a0.51 0.51 0 0 1-0.2 0.43 0.47 0.47 0 0 1-0.26 0.1zm-4.14-6.46a7.25 7.25 0 0 0 3.59 5.12l-0.19-3a11.62 11.62 0 0 1-3.4-2.12z"/>
   <path d="m142.88 126.69a0.51 0.51 0 0 1-0.36-0.15 152.61 152.61 0 0 1-10.79-12.42 0.51 0.51 0 0 1 0.1-0.7 0.5 0.5 0 0 1 0.7 0.1 151.14 151.14 0 0 0 10.71 12.33 0.49 0.49 0 0 1 0 0.7 0.47 0.47 0 0 1-0.36 0.14z"/>
  </g>
  <path d="m119.45 177.8a0.46 0.46 0 0 1-0.32-0.11c-0.26-0.21-6.21-5.28-6.24-13.28a0.5 0.5 0 0 1 0.49-0.5 0.49 0.49 0 0 1 0.49 0.5c0 7.53 5.83 12.47 5.89 12.51a0.51 0.51 0 0 1 0.06 0.71 0.52 0.52 0 0 1-0.37 0.17z" fill="#fff"/>
  <g fill="#231f20">
   <ellipse transform="rotate(-78.19 137.22 68.049)" cx="137.22" cy="68.05" rx="1.34" ry=".53"/>
   <path d="m100.88 117.68h-0.08a0.51 0.51 0 0 1-0.41-0.58c0.11-0.73 2.92-17.95 6.08-23.7a0.49 0.49 0 0 1 0.68-0.19 0.48 0.48 0 0 1 0.19 0.67c-3.07 5.6-5.94 23.2-6 23.38a0.49 0.49 0 0 1-0.46 0.42z"/>
   <path d="m289.16 195a10.2 10.2 0 0 0-1.16-5.45c-0.73-1.21-1.85-2.17-2.45-3.45-1-2.22-0.31-4.83-0.55-7.26a9.11 9.11 0 0 0-2.55-5.41c-1.27-1.28-2.91-2.17-4.13-3.51-2-2.2-2.56-5.29-3.69-8a20.12 20.12 0 0 0-8-9.37c2.17 4.37-2.78 9.93-0.53 14.26 0.71 1.38 2.06 2.38 2.59 3.84 1.25 3.51-2.94 7.32-1.6 10.81 0.67 1.74 2.54 2.75 3.41 4.4 1.17 2.22 0.25 4.93 0.34 7.44 0.13 3.47 2.24 6.57 4.75 9 1.56 1.49 3.3 2.79 5 4.14 2 1.62 2.87 3.31 4.64 0.72a22.34 22.34 0 0 0 3.93-12.16z"/>
   <path d="m291.41 197c-0.65-2.68-1.11-5.6 0-8.13 1.23-2.86 4.32-4.89 4.68-8 0.24-2-0.79-4.09-0.39-6.09s2-3.37 3.39-4.85a20.28 20.28 0 0 0 5.24-12.4 31.13 31.13 0 0 1 5 8.25c1.06 3.05 1.08 6.63-0.73 9.31a8.45 8.45 0 0 0-1.26 2.06c-0.61 2 1.08 3.82 1.95 5.7a6.55 6.55 0 0 1-0.61 6.72c-1.78 2.21-5.19 3.07-6.07 5.76a13.58 13.58 0 0 0-0.3 3.06 9 9 0 0 1-6.46 7.7c-2.09 0.51-2.05-0.32-2.43-2.09-0.53-2.36-1.42-4.65-2.01-7z"/>
   <path d="m284.73 177.69c-1.49-5.15-2.08-10.54-3.65-15.67a85.74 85.74 0 0 0-4.88-11.68l6.39 2.69c2.05 0.87 4.27 1.89 5.24 3.89 1.68 3.49-1.34 8 0.43 11.41a28.22 28.22 0 0 0 2.53 3.18c1.88 2.64 1.59 6.28 0.56 9.35-0.45 1.32-2.38 8.16-4.11 6.26-0.7-0.76-0.76-3.59-1.05-4.63-0.45-1.61-0.99-3.19-1.46-4.8z"/>
   <path d="m288.28 246.16c-1.28-8.43-5.28-38.16-5.28-38.42l1-0.13c0 0.3 4 30 5.31 38.4z"/>
   <path d="m289.67 254.12h-1c0.08-10 4.24-48.2 6.64-50.82l0.74 0.68c-1.6 1.73-6.28 36.44-6.38 50.14z"/>
   <path d="m291.84 252.21h-1c1-21.57-3.62-66.87-3.67-67.32l1-0.11c0.05 0.42 4.63 45.79 3.67 67.43z"/>
  </g>
  <path d="m277.27 222h23.8l-1.66 27c-0.29 4.68-3.76 8.31-7.94 8.31h-4.6c-4.18 0-7.64-3.63-7.93-8.31z" fill="#fff"/>
  <path d="m291.47 257.87h-4.6c-4.43 0-8.14-3.86-8.45-8.79l-1.66-27a0.51 0.51 0 0 1 0.51-0.55h23.8a0.55 0.55 0 0 1 0.38 0.16 0.57 0.57 0 0 1 0.14 0.39l-1.67 27c-0.3 4.92-4.01 8.79-8.45 8.79zm-13.65-35.33 1.63 26.46c0.27 4.39 3.53 7.82 7.42 7.82h4.6c3.89 0 7.15-3.43 7.42-7.82l1.63-26.48z" fill="#231f20"/>
  <polygon points="263.27 46.22 312.19 46.22 301.16 128.47 252.24 128.47" fill="#fff"/>
  <path d="m301.16 129h-48.92a0.48 0.48 0 0 1-0.37-0.17 0.46 0.46 0 0 1-0.12-0.39l11-82.26a0.51 0.51 0 0 1 0.5-0.43h48.92a0.52 0.52 0 0 1 0.38 0.17 0.56 0.56 0 0 1 0.12 0.4l-11 82.25a0.51 0.51 0 0 1-0.51 0.43zm-48.35-1h47.91l10.9-81.25h-47.91z" fill="#231f20"/>
  <path d="m292.89 116.26h-28.1a3.16 3.16 0 0 1-3.19-3.69l0.38-2.87a4.37 4.37 0 0 1 4.19-3.69h28.09a3.15 3.15 0 0 1 3.19 3.69l-0.38 2.87a4.35 4.35 0 0 1-4.18 3.69z" fill="#2c5363"/>
  <path d="m294.91 101.15h-28.09a3.15 3.15 0 0 1-3.19-3.69l0.38-2.87a4.35 4.35 0 0 1 4.19-3.69h28.09a3.16 3.16 0 0 1 3.19 3.69l-0.38 2.87a4.37 4.37 0 0 1-4.19 3.69z" fill="#fff"/>
  <path d="m294.91 101.65h-28.09a3.7 3.7 0 0 1-2.83-1.24 3.75 3.75 0 0 1-0.86-3l0.39-2.87a4.87 4.87 0 0 1 4.68-4.12h28.09a3.7 3.7 0 0 1 2.83 1.24 3.77 3.77 0 0 1 0.86 3l-0.39 2.87a4.87 4.87 0 0 1-4.68 4.12zm-26.71-10.25a3.84 3.84 0 0 0-3.69 3.25l-0.39 2.87a2.8 2.8 0 0 0 0.62 2.23 2.72 2.72 0 0 0 2.08 0.9h28.09a3.84 3.84 0 0 0 3.69-3.26l0.39-2.87a2.77 2.77 0 0 0-0.63-2.23 2.71 2.71 0 0 0-2.07-0.89z" fill="#d1d3d4"/>
  <path d="m296.94 86h-28.09a3.16 3.16 0 0 1-3.2-3.69l0.39-2.87a4.34 4.34 0 0 1 4.18-3.69h28.09a3.16 3.16 0 0 1 3.2 3.69l-0.39 2.87a4.34 4.34 0 0 1-4.18 3.69z" fill="#fff"/>
  <path d="m296.94 86.53h-28.09a3.65 3.65 0 0 1-3.69-4.26l0.38-2.87a4.88 4.88 0 0 1 4.68-4.12h28.09a3.65 3.65 0 0 1 3.69 4.26l-0.38 2.87a4.88 4.88 0 0 1-4.68 4.12zm-26.72-10.25a3.85 3.85 0 0 0-3.69 3.26l-0.38 2.87a2.79 2.79 0 0 0 0.62 2.22 2.72 2.72 0 0 0 2.08 0.9h28.09a3.85 3.85 0 0 0 3.69-3.26l0.37-2.87a2.65 2.65 0 0 0-2.7-3.12z" fill="#d1d3d4"/>
  <path d="m299 70.91h-28.1a3.16 3.16 0 0 1-3.19-3.69l0.38-2.87a4.36 4.36 0 0 1 4.19-3.69h28.09a3.15 3.15 0 0 1 3.19 3.69l-0.38 2.87a4.35 4.35 0 0 1-4.18 3.69z" fill="#fff"/>
  <path d="m299 71.41h-28.1a3.7 3.7 0 0 1-2.9-1.24 3.78 3.78 0 0 1-0.86-3l0.39-2.87a4.87 4.87 0 0 1 4.68-4.13h28.09a3.68 3.68 0 0 1 2.83 1.24 3.75 3.75 0 0 1 0.86 3l-0.38 2.87a4.88 4.88 0 0 1-4.61 4.13zm-26.75-10.25a3.85 3.85 0 0 0-3.69 3.26l-0.38 2.87a2.65 2.65 0 0 0 2.69 3.12h28.13a3.84 3.84 0 0 0 3.68-3.25l0.39-2.87a2.8 2.8 0 0 0-0.62-2.23 2.72 2.72 0 0 0-2.08-0.9z" fill="#d1d3d4"/>
  <path d="m297.83 54.43h-21.54a0.5 0.5 0 0 1-0.5-0.5 0.51 0.51 0 0 1 0.5-0.5h21.54a0.5 0.5 0 0 1 0.5 0.5 0.5 0.5 0 0 1-0.5 0.5z" fill="#d1d3d4"/>
 </g>
</svg>
